<mxfile host="app.diagrams.net" modified="2024-01-29T05:55:17.326Z" agent="Mozilla/5.0 (X11; CrOS x86_64 14541.0.0) AppleWebKit/537.36 (KHTML, like Gecko) Chrome/120.0.0.0 Safari/537.36" version="23.0.2" etag="BB2IpT7dQ-8SMxE8PTts" type="github">
  <diagram name="Page-1" id="t29qqXzdbBASpzOTirJw">
    <mxGraphModel>
      <root>
        <mxCell id="0" />
        <mxCell id="1" parent="0" />
      </root>
    </mxGraphModel>
  </diagram>
</mxfile>
